Coordinates
version=1
nRows=26
nColumns=24
inDegrees=yes

Units are S.I. units (second, meters, Newtons, ...)
Angles are in degrees.

endheader
time	pelvis_tilt	pelvis_list	pelvis_rotation	pelvis_tx	pelvis_ty	pelvis_tz	hip_flexion_r	hip_adduction_r	hip_rotation_r	knee_angle_r	ankle_angle_r	subtalar_angle_r	mtp_angle_r	hip_flexion_l	hip_adduction_l	hip_rotation_l	knee_angle_l	ankle_angle_l	subtalar_angle_l	mtp_angle_l	lumbar_extension	lumbar_bending	lumbar_rotation
      4.47000000	     -8.27441241	    -10.66055557	      1.92055287	      1.91796210	      0.66369717	     -0.12595090	      3.64579934	     10.94625268	      6.76064409	     14.85067363	     -1.05612586	     -5.22853949	      0.00000000	     20.00011933	     -6.16660554	     11.39378944	    -69.27513599	     -7.15272514	    -22.15514519	      0.00000000	    -14.87788771	      8.93934263	      1.15595233
      4.48000000	     -9.07130026	     -9.40415148	      1.20177247	      1.93583125	      0.66464030	     -0.12437408	      2.07666318	      9.91805788	      6.68818215	     16.01695332	     -0.21204683	     -4.43861783	      0.00000000	     24.47081758	     -4.12042363	     12.48730712	    -70.18765175	     -3.04697543	    -18.57419809	      0.00000000	    -14.90291641	      6.75515639	      3.71206103
      4.49000000	     -9.60304715	     -8.43626184	      0.05896000	      1.95345526	      0.66546984	     -0.12237810	      0.82414287	      9.40366604	      6.80448796	     16.26719201	      0.71997221	     -4.27019081	      0.00000000	     28.43819416	     -2.83225650	     13.03740956	    -70.10257277	      0.39572006	    -15.72905045	      0.00000000	    -15.29749653	      4.77380632	      6.84188567
      4.50000000	     -9.84458780	     -7.73348064	     -1.51016006	      1.97104245	      0.66621472	     -0.12013790	     -0.34458116	      9.26273885	      7.32437433	     15.85909023	      1.68453306	     -4.71399546	      0.00000000	     31.82025997	     -2.33020127	     13.10232261	    -68.99866394	      3.10976616	    -14.13063549	      0.00000000	    -16.01641914	      3.01543151	     10.34880383
      4.51000000	     -9.89998525	     -7.21246972	     -3.36389438	      1.98878069	      0.66679047	     -0.11787715	     -1.57507478	      9.26529486	      8.35150030	     15.16016118	      2.53543558	     -5.80961318	      0.00000000	     34.66441863	     -2.47503020	     12.81351166	    -66.84476878	      5.17006927	    -13.88359523	      0.00000000	    -16.85264081	      1.44276097	     13.93654363
      4.52000000	     -9.93712730	     -6.69838093	     -5.27429340	      2.00683475	      0.66713657	     -0.11585101	     -2.88597747	      9.11431647	      9.80747206	     14.50580390	      3.09742846	     -7.49317326	      0.00000000	     37.05331866	     -2.95129226	     12.31345046	    -63.51707251	      6.35617715	    -15.26195197	      0.00000000	    -17.53708818	     -0.05549885	     17.26207084
      4.53000000	    -10.13374814	     -6.29786692	     -7.03853940	      2.02529466	      0.66721332	     -0.11409661	     -4.12063118	      8.97726511	     10.91410516	     13.92367710	      3.63077343	     -8.64761688	      0.00000000	     39.11764112	     -3.76957277	     11.79823709	    -58.99212884	      7.07647093	    -17.43201115	      0.00000000	    -17.85634819	     -1.28792015	     20.18953649
      4.54000000	    -10.57822612	     -5.88233083	     -8.57831251	      2.04425543	      0.66701418	     -0.11260436	     -5.23583652	      8.70463383	     11.69495945	     13.54837952	      3.93979041	     -9.39148750	      0.00000000	     40.82969249	     -4.74428981	     11.24748848	    -53.17489715	      7.46164953	    -19.89796519	      0.00000000	    -17.68360873	     -2.35965428	     22.62899085
      4.55000000	    -11.24380987	     -5.48909123	     -9.91341253	      2.06377979	      0.66659699	     -0.11123614	     -6.22016642	      8.38175398	     12.00298071	     13.29516237	      4.15220915	     -9.39915881	      0.00000000	     42.04121121	     -5.89062539	     10.63904099	    -46.04791830	      7.69174540	    -21.94085765	      0.00000000	    -17.04694799	     -3.25633318	     24.67563741
      4.56000000	    -11.93363243	     -5.19963973	    -11.14751603	      2.08398345	      0.66605848	     -0.10982196	     -7.25061434	      8.09852951	     11.83991920	     13.06211149	      4.30483417	     -8.52534269	      0.00000000	     42.44794712	     -7.24982088	      9.95543976	    -37.75112331	      7.69141958	    -23.09035877	      0.00000000	    -16.17461800	     -3.97835849	     26.49103301
      4.57000000	    -12.36312039	     -5.19976868	    -12.42870910	      2.10502423	      0.66550557	     -0.10821709	     -8.58044758	      8.00845772	     11.28934104	     12.63847716	      4.60236215	     -6.69539031	      0.00000000	     41.82305131	     -8.98909895	      8.94531439	    -28.80595062	      7.81583690	    -22.46209248	      0.00000000	    -15.40111788	     -4.39820164	     28.17137279
      4.58000000	    -12.45314467	     -5.61781024	    -13.85796943	      2.12695015	      0.66487160	     -0.10640176	    -10.29734798	      8.16470405	     10.75605285	     11.94611975	      4.80679357	     -4.48621389	      0.00000000	     40.37159891	    -11.14566268	      7.23216044	    -20.09548713	      8.08016213	    -19.70839261	      0.00000000	    -14.84811481	     -4.39718845	     29.80632244
      4.59000000	    -12.17957171	     -6.40827476	    -15.40845324	      2.14968563	      0.66427824	     -0.10455308	    -12.27577794	      8.49650138	     10.09873717	     10.72367555	      5.08569876	     -1.92091988	      0.00000000	     38.45078980	    -13.47720571	      4.33668896	    -12.64723099	      8.66368796	    -14.89039540	      0.00000000	    -14.61527954	     -4.01717808	     31.39477555
      4.60000000	    -11.53597041	     -7.27782514	    -16.84050657	      2.17306410	      0.66393793	     -0.10307373	    -14.36289798	      8.67267023	      9.28722648	      8.94339418	      5.10093767	      0.61928490	      0.00000000	     36.35011017	    -15.39108705	      0.34916509	     -7.15844021	      9.32641603	     -8.95456674	      0.00000000	    -14.76576509	     -3.53906929	     32.54266386
      4.61000000	    -10.73470786	     -8.03062728	    -17.99760363	      2.19679974	      0.66388701	     -0.10219408	    -16.08434366	      8.61368842	      8.09399039	      6.38882157	      4.80092903	      3.00819072	      0.00000000	     34.35474139	    -16.59954200	     -3.49128958	     -3.67586327	      9.74943743	     -4.13507062	      0.00000000	    -15.09324516	     -3.09745855	     33.17392015
      4.62000000	     -9.84578802	     -8.56212739	    -18.76025381	      2.22074068	      0.66408039	     -0.10198330	    -17.25851778	      8.29097747	      6.63622898	      3.03280793	      3.94902390	      4.74493058	      0.00000000	     32.50274142	    -17.06606524	     -6.12913833	     -1.94366438	      9.69165674	     -2.19537222	      0.00000000	    -15.51397824	     -2.78534350	     33.22209913
      4.63000000	     -8.95085508	     -8.79703931	    -19.21008593	      2.24477200	      0.66436130	     -0.10226488	    -17.85580769	      7.68178325	      5.73669401	     -0.95815576	      2.12243512	      4.71250057	      0.00000000	     30.83509761	    -16.92972682	     -7.73991497	     -1.70151611	      9.16795297	     -2.92729154	      0.00000000	    -15.88632564	     -2.70338791	     32.91172439
      4.64000000	     -7.90522427	     -8.78516954	    -19.28897442	      2.26886384	      0.66474820	     -0.10301758	    -17.96616369	      6.89624642	      4.87562640	     -5.68798573	     -0.58230897	      3.40275888	      0.00000000	     29.20461805	    -16.26129355	     -8.71913113	     -2.67740862	      8.31205533	     -5.19162382	      0.00000000	    -16.40485003	     -2.87289028	     32.26586811
      4.65000000	     -7.03452711	     -8.53973301	    -19.13711481	      2.29277420	      0.66489008	     -0.10403472	    -17.39320258	      6.13254715	      4.67157037	    -10.92956930	     -4.74618665	     -0.00167921	      0.00000000	     27.90411194	    -15.26926467	     -9.18203999	     -4.45468157	      6.66524644	     -8.63514136	      0.00000000	    -16.73385486	     -3.20077926	     31.31720312
      4.66000000	     -6.23721025	     -7.93259036	    -18.76128062	      2.31631714	      0.66488225	     -0.10528105	    -16.03805706	      5.23235980	      4.12236980	    -16.92481066	     -9.48538449	     -4.28336243	      0.00000000	     26.80312711	    -13.86190958	     -9.49627130	     -6.60120312	      4.48580175	    -11.81432458	      0.00000000	    -17.01966467	     -3.91375109	     30.06991158
      4.67000000	     -5.53500029	     -6.88595314	    -18.09771786	      2.33925543	      0.66475255	     -0.10681278	    -13.88053555	      4.08806981	      3.05408058	    -23.53239546	    -14.32051725	     -9.25006890	      0.00000000	     25.87832379	    -11.90699865	     -9.07988679	     -8.67551590	      1.66498122	    -15.12194841	      0.00000000	    -17.32855747	     -5.08580361	     28.34671494
      4.68000000	     -5.01645882	     -5.34662797	    -17.33904574	      2.36129677	      0.66460466	     -0.10836419	    -10.88223896	      2.61502577	      1.92114454	    -30.56008048	    -19.13657125	    -15.36531295	      0.00000000	     25.31013816	     -9.54050780	     -8.71363876	    -10.81126965	     -0.49287451	    -16.92852795	      0.00000000	    -17.63485311	     -6.82713841	     26.41966991
      4.69000000	     -4.66316933	     -3.31568727	    -16.49031257	      2.38244704	      0.66446535	     -0.10996284	     -7.16535363	      0.72842531	      0.80354780	    -37.77446002	    -23.22741322	    -22.10984192	      0.00000000	     24.98950147	     -6.69440813	     -8.10569030	    -12.85677511	     -1.73725474	    -18.09400231	      0.00000000	    -18.01131873	     -9.11190043	     24.24887216
      4.70000000	     -4.40113897	     -1.01805549	    -15.54077546	      2.40285229	      0.66448559	     -0.11160469	     -3.05384044	     -1.38461646	     -0.05186227	    -44.73051833	    -26.44723884	    -29.01631812	      0.00000000	     24.70590063	     -3.56524853	     -7.51653720	    -14.72744614	     -1.77366114	    -18.57466159	      0.00000000	    -18.62212121	    -11.65642987	     21.77475815
      4.71000000	     -4.26875404	      1.33847846	    -14.68977392	      2.42269947	      0.66476270	     -0.11310432	      1.36109639	     -3.46688871	     -0.26587255	    -51.09401774	    -28.13011108	    -35.19255388	      0.00000000	     24.21200263	     -0.43419329	     -7.15296617	    -16.07331170	     -0.69939084	    -18.40768449	      0.00000000	    -19.35664196	    -14.22546590	     19.34857310
      4.72000000	     -4.18882160	      3.47679240	    -13.89849959	      2.44222647	      0.66548660	     -0.11450415	      5.85008468	     -5.18679703	      0.12149345	    -56.51851910	    -27.86474496	    -39.72593751	      0.00000000	     23.23287426	      2.47086750	     -6.94116454	    -16.62799566	      0.99576966	    -17.82288569	      0.00000000	    -20.27470788	    -16.46665251	     16.98473505
